<?xml version="1.0" standalone="no"?>
<!DOCTYPE svg PUBLIC "-//W3C//DTD SVG 20010904//EN"
 "http://www.w3.org/TR/2001/REC-SVG-20010904/DTD/svg10.dtd">
<svg version="1.0" xmlns="http://www.w3.org/2000/svg"
 width="700.000000pt" height="700.000000pt" viewBox="0 0 700.000000 700.000000"
 preserveAspectRatio="xMidYMid meet">
<metadata>
Created by potrace 1.11, written by Peter Selinger 2001-2013
</metadata>
<g transform="translate(0.000000,700.000000) scale(0.100000,-0.100000)"
fill="#000000" stroke="none">
<path d="M535 6985 c-238 -52 -425 -221 -501 -452 l-29 -88 0 -2945 c0 -2809
1 -2948 18 -3003 61 -197 192 -354 357 -429 60 -28 110 -47 110 -43 0 1 21 -3
46 -11 40 -12 491 -14 2978 -11 1612 1 2942 5 2955 9 155 46 237 93 332 187
69 69 109 128 144 211 58 138 55 -55 54 3100 0 2793 -1 2908 -19 2976 -61 236
-215 400 -450 483 l-75 26 -2930 2 c-2388 1 -2941 -1 -2990 -12z"/>
</g>
</svg>
